SplineFontDB: 3.0
FontName: Neo-EulerBB
FullName: Neo Euler BB
FamilyName: Neo Euler BB
Weight: Medium
Copyright: Created by .'D/ -3FJ,,,, with FontForge 2.0 (http://fontforge.sf.net)
UComments: "2009-9-24: Created." 
Version: 001.000
ItalicAngle: 0
UnderlinePosition: -100
UnderlineWidth: 50
Ascent: 800
Descent: 200
LayerCount: 2
Layer: 0 0 "Back"  1
Layer: 1 0 "Fore"  0
NeedsXUIDChange: 1
XUID: [1021 862 584604386 3385988]
OS2Version: 0
OS2_WeightWidthSlopeOnly: 0
OS2_UseTypoMetrics: 1
CreationTime: 1253805665
ModificationTime: 1253808608
OS2TypoAscent: 0
OS2TypoAOffset: 1
OS2TypoDescent: 0
OS2TypoDOffset: 1
OS2TypoLinegap: 0
OS2WinAscent: 0
OS2WinAOffset: 1
OS2WinDescent: 0
OS2WinDOffset: 1
HheadAscent: 0
HheadAOffset: 1
HheadDescent: 0
HheadDOffset: 1
OS2Vendor: 'PfEd'
DEI: 91125
Encoding: UnicodeFull
Compacted: 1
UnicodeInterp: none
NameList: Adobe Glyph List
DisplaySize: -96
AntiAlias: 1
FitToEm: 1
WinInfo: 0 13 5
BeginChars: 1114112 26

StartChar: u1D538
Encoding: 120120 120120 0
Width: 829
VWidth: 1015
Flags: W
HStem: -13.8496 29.6992<600.205 703.093> -0.849609 21G<-11.8496 121.101> 288 39<286 460> 687.15 29.6992<398.462 487.624>
DStem2: 18.791 29.1895 -4.89941 -0.849609 0.996211 0.0869708<0 100.266> 126.153 38.5615 145.85 34.8994 0.435325 0.900274<5.27738 285.442 329.259 571.312> 418.85 567.899 389.808 546.027 0.290995 -0.956725<12.4745 242.449 282.962 562.353>
LayerCount: 2
Fore
SplineSet
266 288 m 1xb0
 234.588 223.395 175.775 111.476 145.85 34.8994 c 1
 121.101 10.1504 l 1
 -4.89941 -0.849609 l 1x70
 -11.8496 14.1006 l 1
 195.248 322.445 357.482 629.287 378 669 c 1
 314 689 l 1
 336.899 716.85 l 1
 510.899 716.85 l 1
 515.85 711.899 l 1
 626.85 338.899 l 2
 655.05 247.248 690.202 146.988 727.85 106.899 c 0
 747.429 86.0508 776.713 89.916 823.899 99.8496 c 1
 828.85 94.8994 l 1
 833.409 76.665 l 1
 798.667 44.667 744.667 18.667 703.101 0.150391 c 1
 679.101 -7.84961 655.101 -13.8496 630.101 -13.8496 c 0
 609.711 -13.8496 558.319 -12.8418 528.15 91.1006 c 2
 471 288 l 1
 266 288 l 1xb0
374.859 552.898 m 1
 399.607 577.646 l 1
 404.899 580.85 l 1
 410.857 577.863 l 1
 415.807 572.914 l 1
 418.85 567.899 l 1
 557.85 110.899 l 2
 565.896 82.9131 577.85 55.8994 596.85 32.8994 c 0
 603.683 25.8359 629.484 13.9629 649.899 15.8496 c 1xb0
 692.159 15.8496 754.698 49.7676 800.572 69.416 c 1
 658.096 40.0576 650.586 139.535 487.624 687.15 c 1
 405 687.15 l 1
 337.172 551.692 208.05 317.086 17.8496 33.8994 c 1
 18.791 29.1895 l 1
 126.153 38.5615 l 1
 374.859 552.898 l 1
286 327 m 1
 460 327 l 1
 389.808 546.027 l 1
 286 327 l 1
EndSplineSet
EndChar

StartChar: u1D539
Encoding: 120121 120121 1
Width: 726
VWidth: 1015
Flags: W
HStem: -1.84961 29.6992<115.85 465.839> 40.1504 29.6992<282.254 383.81> 346.322 30.5273<276.85 383.896> 385.15 29.7139<276.85 366.052> 661.15 29.6992<281.746 406.284> 703.15 29.6992<59.1807 481.835>
VStem: 122.15 29.6992<53.0359 641.707> 247.15 29.6992<78.8036 346.322 414.864 650.853> 602.15 29.6992<511.304 620.753> 626.15 29.6992<150.155 274.055>
LayerCount: 2
Fore
SplineSet
151.85 590.899 m 2xff80
 151.85 108.899 l 2
 151.85 71.501 145.558 63.252 139.589 55.0332 c 1
 115.85 31.2939 l 1
 115.85 27.8496 l 1
 354.899 27.8496 l 2
 400.73 27.8496 517.689 32.4404 584.051 86.8906 c 1
 613.32 122.609 626.15 167.355 626.15 212.101 c 0xff40
 626.15 248.844 612.729 283.812 586.101 311.15 c 1
 535.894 356.072 438.411 365.875 411.101 368.15 c 1
 406.15 373.101 l 1
 406.15 384.101 l 1
 430.899 408.85 l 1
 479.241 419.076 531.904 437.08 571.213 468.487 c 1
 591.144 493.632 602.15 523.719 602.15 555.101 c 0
 602.15 588.873 593.132 623.525 568.101 649.15 c 1
 508.481 703.586 368.717 703.15 344.101 703.15 c 2
 59.1807 703.15 l 1
 148.756 676.621 151.85 660.732 151.85 590.899 c 2xff80
655.85 231.899 m 1
 647.071 172.878 658.764 150.503 589.834 81.5742 c 2
 571.101 63.1504 l 1
 518.555 14.6465 422.107 -1.84961 335.101 -1.84961 c 2
 91.1006 -1.84961 l 1
 86.1504 3.10059 l 1
 86.1504 19.1006 l 1
 96.5605 28.959 105.724 40.0645 117.224 48.833 c 1
 121.462 61.5664 122.15 74.9893 122.15 89.1006 c 2
 122.15 571.101 l 1
 123.906 594.98 118.294 634.9 111.206 642.066 c 0
 99.4551 652.23 82.8193 661.088 30.1006 676.15 c 1
 25.1504 681.101 l 1
 25.1504 702.101 l 1
 55.8994 732.85 l 1
 363.899 732.85 l 2
 410.899 732.85 455.924 729.947 500.899 718.85 c 0
 626.433 687.873 629.854 615.744 631.85 574.899 c 1xff80
 623.071 528.899 635.454 521.368 576.497 462.411 c 2
 560.101 446.15 l 1
 533.803 422.482 500.158 405.731 465.416 393.905 c 1
 586.127 376.091 651.514 328.494 655.85 231.899 c 1
559.917 455.735 m 1
 559.173 454.986 l 1
 559.917 455.735 l 1
574.562 76.2354 m 1
 572.51 74.1494 l 1
 574.562 76.2354 l 1
276.85 346.322 m 1
 276.85 141.899 l 1
 275.194 122.168 280.062 84.6914 282.58 78.4902 c 1
 290.64 72.459 302.64 69.8496 312.899 69.8496 c 0
 360.422 69.8496 410.654 78.8828 446.425 108.111 c 1
 454.722 121.616 488.978 182.067 481.15 214.101 c 1
 482.906 246.242 461.374 283.053 442.429 301.998 c 1
 420.155 322.59 377.151 342.034 276.85 346.322 c 1
247.15 122.101 m 2
 247.15 352.101 l 1
 271.899 376.85 l 1
 385.3 373.865 435.733 356.673 459.899 333.85 c 0
 492.273 302.66 510.85 273.8 510.85 233.899 c 0
 510.85 189.195 494.564 145.396 461.996 112.827 c 2
 437.247 88.0781 l 2
 417.418 69.0928 379.588 40.1504 293.101 40.1504 c 0
 248.005 40.1504 247.15 68.3232 247.15 122.101 c 2
247.15 390.101 m 1
 247.15 609.101 l 2
 247.15 623.101 247.15 646.101 250.15 651.101 c 1
 284.899 685.85 l 1
 296.899 689.85 312.899 690.85 325.899 690.85 c 0
 352.899 690.85 379.013 689.321 404.899 682.85 c 0
 472.629 665.916 495.85 615.029 495.85 566.899 c 0
 495.85 527.174 480.641 487.447 451.069 457.876 c 2
 426.32 433.128 l 2
 403.279 411.156 360.612 385.15 252.101 385.15 c 1
 247.15 390.101 l 1
436.205 453.925 m 1
 444.691 467.407 468.936 514.855 466.15 547.101 c 1
 467.906 575.995 452.241 613.136 435.715 629.662 c 1
 416.488 644.946 387.345 661.15 306.101 661.15 c 0
 297.249 661.15 287.008 660.688 277.584 659.129 c 1
 277.584 649.938 276.85 637.657 276.85 628.899 c 2
 276.85 414.864 l 1
 337.69 415.247 399.071 424.703 436.205 453.925 c 1
EndSplineSet
EndChar

StartChar: u1D53B
Encoding: 120123 120123 2
Width: 899
VWidth: 1015
Flags: W
HStem: -0.849609 29.6992<123.85 514.438> 42.1504 29.6992<296.699 459.694> 655.15 29.6992<287.351 491.338> 698.15 29.6992<59.8994 594.64>
VStem: 126.15 29.6992<58.848 645.749> 251.15 29.6992<88.1606 653.617> 659.15 29.6992<279.603 498.395> 813.15 29.6992<290.425 503.852>
LayerCount: 2
Fore
SplineSet
126.15 111.101 m 2
 126.15 540.101 l 2
 126.15 607.848 121.936 633.822 109.941 647.989 c 1
 99.2539 657.213 80.3779 661.209 34.1006 668.15 c 1
 29.1504 673.101 l 1
 29.1504 697.101 l 1
 59.8994 727.85 l 1
 474.899 727.85 l 2
 583.54 727.85 689.04 705.723 750.899 649.85 c 1
 760.033 641.198 l 1
 791.546 609.691 842.85 548.279 842.85 408.899 c 0
 842.85 314.698 819.309 217.78 748.967 147.438 c 2
 713.101 112.15 l 1
 626.101 32.1504 503.101 -0.849609 381.101 -0.849609 c 2
 99.1006 -0.849609 l 1
 94.1504 18.1006 l 1
 121.569 54.6582 126.15 39.041 126.15 111.101 c 2
123.85 37.8994 m 1
 123.85 28.8496 l 1
 400.899 28.8496 l 2
 522.899 28.8496 645.899 61.8496 732.899 141.85 c 1
 767.951 176.114 822.284 300.223 813.15 389.101 c 1
 814.906 469.362 792.052 559.683 737.76 613.975 c 1
 707.636 641.911 635.751 698.15 455.101 698.15 c 2
 40.1006 698.15 l 1
 58.8496 697.108 l 1
 78.3203 694.189 103.341 690.289 119.899 683.85 c 1
 150.274 665.533 155.85 650.836 155.85 559.899 c 2
 155.85 130.899 l 2
 155.85 58.5234 151.772 75.1289 123.85 37.8994 c 1
251.15 190.101 m 2
 251.15 580.101 l 1
 252.15 636.101 l 1
 253.556 641.722 255.455 648.33 259.582 652.457 c 2
 284.331 677.206 l 1
 290.899 680.85 l 1
 312.899 684.85 343.899 684.85 368.899 684.85 c 0
 452.903 684.85 558.346 672.231 613.899 622.85 c 1
 648.874 589.94 688.85 535.05 688.85 402.899 c 0
 688.85 255.235 638.89 180.781 604.88 146.771 c 2
 580.132 122.022 l 2
 556.467 99.1064 486.919 42.1504 347.101 42.1504 c 0
 323.101 42.1504 293.101 42.1504 277.101 56.1504 c 0
 260.949 71.0898 251.15 77.4404 251.15 190.101 c 2
659.15 383.101 m 0
 659.15 426.101 655.15 470.101 641.15 511.101 c 1
 632.799 539.665 613.743 573.87 597.746 589.867 c 1
 542.198 639.894 446.163 655.15 349.101 655.15 c 0
 327.931 655.15 302.459 655.15 281.793 652.722 c 1
 280.85 599.899 l 1
 280.85 209.899 l 2
 280.85 173.899 281.85 138.899 287.85 103.899 c 1
 286.939 98.0479 296.212 86.2988 296.212 86.2988 c 1
 307.443 78.9609 310.349 71.8496 366.899 71.8496 c 0
 447.77 71.8496 530.538 91.7852 590.231 142.757 c 1
 612.095 172.73 659.15 239.261 659.15 383.101 c 0
EndSplineSet
EndChar

StartChar: u1D53C
Encoding: 120124 120124 3
Width: 640
VWidth: 1015
Flags: W
HStem: -7.84961 30.0771<314.184 569.101> 4.15039 25.6992<139.625 387.017> 343.098 29.752<247.528 472.15> 389.15 29.6992<257.85 440.097> 695.201 30.6484<27.8994 222.994> 709.15 29.6992<292.057 486.101>
VStem: 94.1504 29.6992<44.1305 641.837> 219.15 29.6992<190.788 340.899 419.938 641.575> 472.15 29.6992<370.18 401.196> 494.15 29.6992<666.899 706.055>
DStem2: 319.899 90.8496 300.101 61.1504 0.998618 0.0525588<-40.6226 264.062> 572.747 22.2275 593.85 16.8994 0.323688 0.946164<1.78935 52.946>
LayerCount: 2
Fore
SplineSet
604.899 105.85 m 1x3780
 619.85 92.8994 l 1
 593.85 16.8994 l 1
 569.101 -7.84961 l 1xb780
 132.101 4.15039 l 1
 97.249 26.918 95.3965 45.9297 94.1504 56.1006 c 1
 94.1504 485.101 l 1
 90.1504 617.101 l 2
 88.9932 626.268 79.9766 642.764 78.8223 643.918 c 0
 56.71 656.038 35.6074 661.837 1.10059 666.15 c 1
 -3.84961 671.101 l 1
 -3.84961 694.101 l 1
 27.8994 725.85 l 1x7b80
 505.899 738.85 l 1
 523.85 728.899 l 1
 523.85 666.899 l 1x3740
 487.101 631.15 l 1
 487.101 631.15 302.132 641.046 249.638 641.578 c 1
 249.638 634.69 248.85 627.464 248.85 619.899 c 2
 248.85 439.899 l 1
 247.094 434.655 255.374 422.374 255.374 422.374 c 1
 257.85 419.899 l 1
 263.899 418.85 l 1
 325.899 418.85 480.899 434.85 483.899 435.85 c 1
 501.85 422.899 l 1
 501.85 364.899 l 1
 477.101 340.15 l 1
 252.101 343.15 l 2
 250.561 343.15 248.972 343.15 247.378 343.098 c 1
 248.85 340.899 l 1
 257.85 147.899 l 2
 258.026 133.23 266.466 111.232 272.088 105.61 c 0
 285.732 94.5723 301.568 90.8496 319.899 90.8496 c 2
 604.899 105.85 l 1x3780
300.101 61.1504 m 1
 224.78 61.1504 219.15 117.567 219.15 321.101 c 0
 219.15 328.586 220.026 336.072 225.873 341.919 c 2
 250.622 366.667 l 2
 256.438 372.051 259.133 372.85 271.899 372.85 c 2
 472.15 370.18 l 1
 472.15 401.196 l 1xb380
 464.101 406.15 l 1
 461.101 405.15 306.101 389.15 244.101 389.15 c 0
 236.62 389.15 219.15 404.739 219.15 420.101 c 2
 219.15 600.101 l 2
 219.15 634.315 222.904 635.652 226.878 642.868 c 1
 251.626 667.616 l 2
 255.791 670.768 262.535 674.85 278.899 674.85 c 1
 494.15 661.632 l 1
 494.15 706.055 l 1
 486.101 709.15 l 1xb740
 260 701 164 699 25.8496 695.201 c 1
 56.6885 690.972 91.166 681.072 101.097 671.142 c 0
 120.73 651.504 123.85 653.764 123.85 504.899 c 2
 123.85 75.8994 l 2
 123.85 63.3232 131.735 50.3086 141.418 40.626 c 1
 153.865 30.1992 166.355 29.8496 246.899 29.8496 c 1x7b40
 572.747 22.2275 l 1
 589.885 72.3232 l 1
 585.101 76.1504 l 1
 300.101 61.1504 l 1
EndSplineSet
EndChar

StartChar: u1D53D
Encoding: 120125 120125 4
Width: 525
VWidth: 1015
Flags: W
HStem: 343.15 29.6992<247.286 472.15> 698.152 29.6973<37.5723 233.846> 705.656 30.1934<288.507 479.15>
VStem: 83.1504 29.7402<22.5215 273.024> 96.1504 29.6992<253.992 645.138> 217.15 29.6992<47.8994 242.214 422.324 640.91> 472.15 29.6992<370.172 398.72> 479.15 29.6992<662.899 705.656>
DStem2: 119.899 17.8496 100.101 -11.8496 0.96459 0.263755<0 105.768> 270.899 673.85 251.101 644.15 0.998087 -0.0618284<-20.9715 208.509>
LayerCount: 2
Fore
SplineSet
246.85 633.899 m 2xad
 246.85 439.899 l 1
 245.094 434.655 251.667 421.081 250.374 422.374 c 2
 252.85 419.899 l 2
 248.532 424.217 258.899 418.85 258.899 418.85 c 1
 332.899 418.85 409.899 430.85 483.899 435.85 c 1
 501.85 418.899 l 1
 501.85 364.899 l 1
 477.101 340.15 l 1
 247.101 343.15 l 2
 246.618 343.157 251.635 107.189 252.85 47.8994 c 1
 228.101 23.1504 l 1
 100.101 -11.8496 l 1
 83.1504 1.10059 l 1xb6
 96.1504 506.101 l 1
 91.1504 628.101 l 2
 90.8584 634.023 80.3555 647.275 80.1768 647.454 c 0
 65.9434 661.688 38.5078 666.318 2.10059 670.15 c 1
 -2.84961 675.101 l 1
 -2.84961 695.101 l 1
 29.8994 727.85 l 1xcc
 503.899 735.85 l 1
 508.85 730.899 l 1
 508.85 662.899 l 1
 477.101 630.15 l 1
 251.101 644.15 l 2
 246.294 644.15 246.85 644.564 246.85 633.899 c 2xad
119.899 17.8496 m 1
 222.784 45.9814 l 1
 217.15 321.101 l 2
 217.15 328.727 217.15 338.17 221.481 342.501 c 2
 246.23 367.25 l 2
 251.928 372.357 256.411 372.85 266.899 372.85 c 2
 472.15 370.172 l 1
 472.15 398.72 l 1xd6
 464.101 406.15 l 1
 239.101 389.15 l 1
 231.589 392.662 239.736 383.515 223.15 400.101 c 0
 218.15 405.101 217.15 413.101 217.15 420.101 c 2
 217.15 614.101 l 2
 217.15 629.101 220.15 637.101 223.15 641.101 c 2
 247.899 665.85 l 2
 252.899 670.85 260.899 673.85 270.899 673.85 c 2
 479.15 660.949 l 1
 479.15 705.656 l 1xa5
 403.652 698.576 193.459 698.175 37.5723 698.152 c 1
 69.1533 694.421 87.4209 689.707 102.45 674.678 c 0
 125.05 652.082 125.85 650.846 125.85 525.899 c 1xcd
 112.891 22.5215 l 1
 119.899 17.8496 l 1
EndSplineSet
EndChar

StartChar: u1D53E
Encoding: 120126 120126 5
Width: 845
VWidth: 1015
Flags: W
HStem: -13.8496 29.6992<330.045 574.624> 39.1504 29.6992<425.718 591.085> 304.097 28.7529<412.85 590.976> 315.953 29.8965<564.823 722.941> 661.15 29.6992<396.069 528.58> 709.15 29.6992<377.004 610.968>
VStem: 75.1504 29.6992<241.767 456.211> 221.15 29.6992<263.102 482.291> 383.15 29.6992<295.547 304.097> 591.198 30.6514<71.7764 252.174> 724.396 30.4531<60.8994 315.953>
DStem2: 188.902 619.328 198.867 619.145 0.714456 0.699681<6.99098 17.5724> 412.85 295.547 383.15 271.101 0.996302 -0.0859216<0 180.281> 671.899 524.85 652.101 495.15 0.727717 0.685877<0 97.6903>
LayerCount: 2
Fore
SplineSet
773.85 609.899 m 1xdfe0
 749.101 585.15 l 1
 652.101 495.15 l 1
 629.15 508.101 l 1
 618.012 547.792 592.757 593.964 567.113 619.607 c 0
 550.862 634.589 522.308 661.15 455.101 661.15 c 0
 404.562 661.15 354.971 644.148 318.256 611.981 c 1
 310.252 600.702 282.461 557.862 273.85 528.899 c 1
 256.85 479.899 250.85 428.899 250.85 377.899 c 1
 249.094 292.163 275.004 195.4 334.27 136.135 c 0
 354.162 117.461 409.721 68.8496 522.899 68.8496 c 1
 591.198 71.7764 l 1
 592.15 226.101 l 2
 592.285 227.829 588.729 252.673 568.101 255.15 c 2
 383.15 271.101 l 1
 383.15 308.101 l 1
 407.899 332.85 l 1xefe0
 747.899 345.85 l 1
 752.85 340.899 l 1
 748.072 223.429 l 1
 754.85 60.8994 l 1
 730.101 36.1504 l 1
 631.101 10.1504 530.101 -13.8496 427.101 -13.8496 c 0
 337.101 -13.8496 246.101 9.15039 182.101 68.1504 c 1
 169.783 80.0098 l 1
 94.1855 155.607 76.9062 244.604 75.1504 339.101 c 1
 83.9287 445.238 85.2148 515.641 188.902 619.328 c 1
 211.899 641.85 l 1
 289.899 711.85 398.899 738.85 505.899 738.85 c 0
 627.887 738.85 715.418 712.915 773.85 609.899 c 1xdfe0
446.899 15.8496 m 0
 541.069 15.8496 633.568 35.9111 724.396 59.2207 c 1
 718.373 203.63 l 1
 722.941 315.953 l 1xdfe0
 412.85 304.097 l 1
 412.85 295.547 l 1
 587.899 284.85 l 1
 602.557 282.263 619.257 265.346 621.85 245.899 c 1
 621.85 170.899 l 1
 620.85 83.8994 l 2
 620.488 79.9229 618.819 76.7305 616.316 74.2275 c 2
 591.567 49.4785 l 2
 581.688 39.5986 545.473 39.1504 503.101 39.1504 c 0
 435.101 39.1504 368.101 57.1504 320.101 101.15 c 1
 311.995 108.911 l 1
 277.992 142.915 221.15 208.587 221.15 358.101 c 0
 221.15 501.758 269.888 574.181 302.99 607.283 c 2
 327.739 632.031 l 2
 338.392 642.176 386.603 690.85 474.899 690.85 c 0
 513.899 690.85 552.899 680.85 580.899 654.85 c 2
 589.387 646.831 l 2
 598.536 637.683 633.868 606.01 657.84 531.098 c 1
 671.899 524.85 l 1
 743.515 591.297 l 1
 687.914 695.172 579.44 709.15 486.101 709.15 c 0
 379.998 709.15 271.929 682.602 194.069 613.902 c 1
 130.714 543.11 104.85 450.601 104.85 358.899 c 0
 104.85 156.366 214.701 15.8496 446.899 15.8496 c 0
320.232 614.62 m 2
 320.263 614.654 320.291 614.684 320.314 614.707 c 2
 320.232 614.62 l 2
198.867 619.145 m 1
 206.227 626.753 l 1
 198.867 619.145 l 1
EndSplineSet
EndChar

StartChar: u1D540
Encoding: 120128 120128 6
Width: 461
VWidth: 1015
Flags: W
HStem: 1.15039 29.6992<62.8496 372.15> 696.15 29.6992<63.1006 366.101>
VStem: 135.15 29.6992<76.4044 642.941> 265.15 29.6992<87.3477 650.125>
DStem2: 63.8496 694.773 39.1006 666.15 0.977176 -0.21243<0 70.4435> 57.8994 58.8496 62.8496 34.502 0.977414 0.211333<0 78.404> 396.899 59.8496 313.101 44.1504 0.9769 -0.213697<-88.3498 -18.0621> 365.15 689.771 290.662 650.125 0.982578 0.18585<-80.3928 0>
LayerCount: 2
Fore
SplineSet
262.15 372.101 m 1
 263.15 623.101 l 2
 263.185 631.71 266.177 640.32 272.228 646.371 c 2
 296.977 671.12 l 2
 300.765 674.908 305.739 677.694 311.899 678.85 c 2
 365.15 689.771 l 1
 366.101 696.15 l 1
 63.1006 696.15 l 5
 63.8496 694.773 l 1
 127.899 680.85 l 2
 143.324 676.736 159.796 661.645 160.85 646.899 c 2
 166.85 396.899 l 1
 164.85 105.899 l 2
 164.783 96.2109 160.449 86.5225 153.425 79.498 c 2
 128.676 54.749 l 2
 124.101 50.1738 118.412 46.7285 112.101 45.1504 c 2
 62.8496 34.502 l 1
 62.8496 30.8496 l 1
 372.15 30.8496 l 1
 372.15 31.2334 l 1
 313.101 44.1504 l 2
 296.047 48.1289 268.526 67.2188 265.15 111.101 c 1
 262.15 372.101 l 1
135.867 75.5273 m 1
 135.15 86.1006 l 1
 137.15 377.101 l 1
 131.15 627.101 l 1
 132.322 631.994 124.717 642.618 124.746 642.965 c 0
 123.561 643.776 114.509 649.874 108.101 651.15 c 2
 39.1006 666.15 l 1
 34.1504 671.101 l 1
 34.1504 697.101 l 1
 62.8994 725.85 l 1
 385.899 725.85 l 1
 394.85 716.899 l 1
 370.101 665.15 l 1
 292.101 649.15 l 1
 292.567 650.51 291.906 650.652 290.662 650.125 c 1
 292.85 642.899 l 1
 291.85 391.899 l 1
 294.85 130.899 l 2
 294.442 115.126 305.456 90.6582 311.758 84.3564 c 0
 312.722 83.3926 323.758 75.498 332.899 73.8496 c 2
 396.899 59.8496 l 1
 401.85 54.8994 l 1
 401.85 25.8994 l 1
 377.101 1.15039 l 1
 38.1006 1.15039 l 1
 33.1504 6.10059 l 1
 33.1504 34.1006 l 1
 57.8994 58.8496 l 1
 131.899 74.8496 l 1
 131.234 72.9092 133.188 73.7656 135.867 75.5273 c 1
EndSplineSet
EndChar

StartChar: u1D541
Encoding: 120129 120129 7
Width: 457
VWidth: 1015
Flags: W
HStem: 670.15 29.6719<87.8496 148.454> 703 26.8994<233.888 406>
VStem: 58.1504 29.6992<699.822 704.682> 165.15 29.6992<-4.37642 653.825> 290.15 29.6992<38.9182 650.544>
LayerCount: 2
Fore
SplineSet
379.5 703 m 1
 87.8496 705.003 l 1
 87.8496 699.822 l 1
 111.195 699.562 134.483 697.388 156.899 690.85 c 1
 190.071 675.804 189.489 663.595 191.85 655.899 c 1
 194.85 633.899 194.85 607.899 194.85 583.899 c 2
 194.85 152.899 l 2
 194.85 -1.60645 186.198 -58.1641 63.3799 -144.915 c 1
 73.3389 -161.319 l 1
 142.899 -121.15 l 1
 226.234 -62.6182 256 -25 277.15 21.1006 c 1
 289.15 57.1006 290.15 106.101 290.15 172.101 c 2
 290.15 518.101 l 2
 290.15 557.101 293.294 612.109 297.15 634.101 c 0
 299.5 647.5 326 689 379.5 703 c 1
406 697 m 1
 355.15 686.101 332 666 325.5 648 c 0
 317.789 626.646 319.85 573.674 319.85 537.899 c 2
 319.85 191.899 l 2
 319.85 31.3008 321.133 -43.8818 52.1006 -191.85 c 1
 47.1504 -186.899 l 1
 30.1504 -158.899 l 1
 54.8994 -134.15 l 1
 151.073 -68.4385 165.15 -34.4121 165.15 133.101 c 2
 165.15 564.101 l 1
 162.15 636.101 l 1
 159.676 654.67 139.706 670.15 63.1006 670.15 c 1
 58.1504 675.101 l 1
 58.1504 702.101 l 1
 69.3408 713.076 79.9648 724.618 91.8994 734.85 c 1
 418.85 729.899 l 1
 406 697 l 1
EndSplineSet
EndChar

StartChar: u1D542
Encoding: 120130 120130 8
Width: 747
VWidth: 1015
Flags: W
HStem: 695 31.8496<60.1006 268.15 600 666.157>
VStem: 124.15 29.6992<22.8994 555.424> 253.15 31.2197<133.803 308.263 416.85 535.367> 268.15 29.6992<555.834 699.101>
DStem2: 60.8496 693.657 36.1006 665.15 0.972224 -0.234054<0 70.0388> 158.899 17.8496 139.101 -11.8496 0.951571 0.30743<0 108.646> 288.782 416.85 302 391 0.691946 0.721949<0 424.164> 352 283 331.921 261.827 0.688514 -0.725223<-64.8852 357.992> 403.531 403.402 369.101 388.15 0.739173 -0.673515<-6.24813 450.274> 390.899 436.85 402 411 0.739478 0.67318<-12.8743 377.274> 600.146 24.9551 580.101 -4.84961 0.919489 0.393115<0 119.935>
LayerCount: 2
Fore
SplineSet
288.782 416.85 m 1xd0
 561.15 702.101 l 1
 585.899 726.85 l 1
 691.899 726.85 l 1
 698.483 721.45 699.549 704.532 704 697 c 1
 692 675 l 1
 604 595 480 485 402 411 c 1
 400.468 409.5 405.666 401.844 403.531 403.402 c 2
 742.85 94.8994 l 1
 742.85 78.8994 l 1
 718.101 54.1504 l 1
 580.101 -4.84961 l 1
 331.921 261.827 l 1
 284.37 308.263 l 1xe0
 293.85 54.8994 l 1
 269.101 30.1504 l 1
 139.101 -11.8496 l 1
 124.15 3.10059 l 1
 127.15 619.101 l 2
 128.106 624.545 119.162 636.05 119.162 636.05 c 1
 116.959 638.253 99.1445 650.307 90.1006 652.15 c 2
 36.1006 665.15 l 1
 28.126 669.142 31.958 684.941 31.1504 696.101 c 1
 59.8994 724.85 l 1
 285.899 730.85 l 1
 297.85 718.899 l 1
 288.782 416.85 l 1xd0
600 695 m 1
 302 391 l 1
 278 389 268 387 253.15 392.101 c 1xe0
 268.15 699.101 l 1xd0
 60.1006 695.15 l 1
 60.8496 693.657 l 1
 109.899 681.85 l 2
 120.699 678.25 132.939 671.77 141.436 663.273 c 0
 162.263 642.441 158.85 664.267 158.85 362.899 c 1
 153.85 22.8994 l 1
 158.899 17.8496 l 1
 262.574 51.3438 l 1
 254.043 143.93 253.15 236.516 253.15 329.101 c 1
 277.899 353.85 l 1
 287.899 353.85 l 1
 352 283 l 1
 600.146 24.9551 l 1
 713.15 73.2686 l 1
 713.15 74.6611 l 1
 369.101 388.15 l 2
 348.698 405.984 380.148 424.434 390.899 436.85 c 1
 667.15 693.827 l 1
 646 697 622.4 694.424 600 695 c 1
EndSplineSet
EndChar

StartChar: u1D543
Encoding: 120131 120131 9
Width: 620
VWidth: 1015
Flags: W
HStem: 0.150391 29.6455<114.85 557.101> 700.523 31.3262<59.8994 338.15>
VStem: 115.15 29.6992<58.7754 650.721> 240.15 29.6992<86.1613 648.769>
DStem2: 559.525 25.0352 581.85 19.8994 0.283628 0.958934<1.40694 46.7196>
LayerCount: 2
Fore
SplineSet
115.15 124.101 m 2
 115.15 570.101 l 2
 115.15 625.387 108.855 643.407 98.9053 653.357 c 0
 90.4453 661.817 69.665 669.062 32.1006 671.15 c 1
 27.1504 676.101 l 1
 27.1504 699.101 l 1
 59.8994 731.85 l 1
 354.899 731.85 l 1
 367.85 718.899 l 1
 343.101 667.15 l 1
 324.101 665.15 301.101 662.15 279.101 655.15 c 1
 273.85 650.899 l 1
 270.85 636.899 269.85 597.899 269.85 568.899 c 2
 269.85 277.899 l 1
 274.85 97.8994 l 1
 273.92 94.2852 280.233 82.8027 291.899 82.8496 c 0
 394.898 83.2715 549.899 100.85 584.899 104.85 c 1
 602.85 90.8994 l 1
 581.85 19.8994 l 1
 557.101 -4.84961 l 1
 90.1006 0.150391 l 1
 85.1504 22.1006 l 1
 115.925 56.2949 115.15 40.1035 115.15 124.101 c 2
572.777 69.8359 m 1
 565.101 75.1504 l 1
 272.101 53.1504 l 2
 267.405 53.1504 261.332 55.5615 256.711 60.1826 c 0
 244.01 72.8838 240.15 67.3115 240.15 258.101 c 2
 240.15 549.101 l 1
 244.15 631.101 l 2
 245.376 637.635 248.603 642.835 252.809 647.041 c 2
 277.558 671.79 l 2
 291.744 685.976 315.952 690.299 338.15 693.724 c 1
 338.15 699.101 l 1
 265.673 698.47 62.5312 704.62 56.8496 700.523 c 1
 99.2812 697.301 111.289 690.472 121.18 680.581 c 0
 139.027 662.734 144.85 658.402 144.85 589.899 c 2
 144.85 143.899 l 1
 141.85 74.8994 l 1
 138.85 64.8994 123.85 51.8994 114.85 41.8994 c 1
 114.85 29.7959 l 1
 559.525 25.0352 l 1
 572.777 69.8359 l 1
EndSplineSet
EndChar

StartChar: u1D544
Encoding: 120132 120132 10
Width: 1157
VWidth: 1015
Flags: W
HStem: -15.8496 29.6992<899.227 996.7> -0.849609 29.6992<482.908 534.101> 54.1504 29.6992<1033.12 1107.6> 701.15 29.6992<125.211 319.93 853.899 993.641>
VStem: 185.15 29.6992<503.329 645.738> 840.244 29.6055<326.899 535.005> 855.15 29.6992<25.8156 274.1> 968.15 29.6992<331.207 672.583> 981.15 29.6992<118.161 331.793>
DStem2: 72.1504 8.10059 102.471 30.8594 0.205596 0.978637<28.5063 552.836> 160 49 175.101 26.1504 0.155578 0.987824<0 479.671> 275.85 556.899 252.873 519.956 0.365057 -0.930985<26.006 567.195> 542.776 28.8496 558.85 23.8994 0.482296 0.876008<0 586.864> 570.383 192.821 577.338 181.336 0.491504 0.870875<0 430.734> 1107.6 53.3311 977.101 -6.84961 0.964116 0.265483<-173.188 0>
LayerCount: 2
Fore
SplineSet
570.383 192.821 m 1x7c
 716.15 451.101 l 1
 760.15 533.101 802.15 615.101 829.15 703.101 c 1
 853.899 727.85 l 1
 1015.9 729.85 l 1
 1020.85 724.899 l 1
 1026.85 712.899 l 1
 1026.85 712.899 997.85 667.899 997.85 619.899 c 2
 997.85 473.899 l 1x7d
 1010.85 208.899 l 2
 1013.02 170.396 1023.49 107.207 1034.41 96.2832 c 1
 1044.56 88.2705 1060.67 83.8496 1072.9 83.8496 c 0
 1090.9 83.8496 1115.9 85.8496 1130.9 87.8496 c 1
 1135.85 82.8994 l 1
 1139.85 55.8994 l 1
 1115.1 31.1504 l 1
 977.101 -6.84961 l 2
 957.101 -11.8496 938.101 -15.8496 918.101 -15.8496 c 0
 904.101 -15.8496 890.101 -13.8496 881.101 -5.84961 c 0
 860.685 14.1934 857.493 20.6035 855.15 43.1006 c 1xba80
 840.244 535.005 l 1
 558.85 23.8994 l 1
 534.101 -0.849609 l 1
 460.101 -0.849609 l 1
 455.15 4.10059 l 1
 252.873 519.956 l 1
 175.101 26.1504 l 1
 91.1006 -1.84961 l 1
 72.1504 8.10059 l 1
 147.15 365.101 l 2
 164.15 447.101 185.15 548.101 185.15 611.101 c 1
 186.906 622.17 176.915 641.248 172.193 645.97 c 0
 161.666 656.497 136.228 666.438 90.1006 669.15 c 1
 85.1504 674.101 l 1
 85.1504 698.101 l 1
 117.899 730.85 l 1
 342.899 730.85 l 1
 347.85 725.899 l 1
 412.735 545.219 482.603 366.531 570.383 192.821 c 1x7c
856.899 573.85 m 1
 865.211 570.052 869.85 563.831 869.85 557.899 c 2x7d
 884.85 62.8994 l 2
 884.85 49.0098 890.805 35.1221 900.899 23.8496 c 1
 909.899 15.8496 923.899 13.8496 937.899 13.8496 c 0
 957.899 13.8496 976.899 17.8496 996.899 22.8496 c 2
 1107.6 53.3311 l 1
 1106.96 57.6289 l 1
 1091.79 55.8174 1069.53 54.1504 1053.1 54.1504 c 0
 993.995 54.1504 989.249 106.093 981.15 189.101 c 1xba80
 968.15 454.101 l 1
 968.15 600.101 l 2
 968.15 648.101 969.15 662.101 978.15 673.101 c 1
 997.15 693.101 l 1
 993.641 700.12 l 1
 850.89 698.358 l 1
 823.975 619.56 785.304 545.458 745.85 470.899 c 0
 745.382 470.016 637.338 279.336 577.338 181.336 c 1
 552.101 163.15 l 1
 547.277 165.582 l 1
 542.328 170.531 l 2
 541.637 171.453 450.879 337.098 319.93 701.15 c 1
 249.662 700.415 118.59 704.092 114.85 698.529 c 1
 130.19 697.442 145.488 695.604 159.899 691.85 c 0
 194.084 682.945 214.85 657.216 214.85 630.899 c 0
 214.85 567.899 193.85 466.899 176.85 384.899 c 2
 102.471 30.8594 l 1
 110.899 27.8496 l 1
 160 49 l 1
 236.15 538.101 l 1
 255.521 566.215 l 2
 256.786 567.979 259.478 568.85 261.899 568.85 c 0
 267.479 568.85 274.571 558.662 275.85 556.899 c 2
 482.908 28.8496 l 1
 542.776 28.8496 l 1
 823.15 538.101 l 1
 830.136 547.914 l 1
 854.885 572.663 l 1
 856.899 573.85 l 1
EndSplineSet
EndChar

StartChar: u1D546
Encoding: 120134 120134 11
Width: 881
VWidth: 1015
Flags: W
HStem: -14.8496 29.6992<290.17 511.271> 31.1504 29.6992<389.905 527.803> 680.15 29.6992<385.461 513.274> 720.15 29.6992<353.986 594.598>
VStem: 57.1504 29.6992<235.14 451.237> 664.15 29.6992<228.654 466.288> 807.15 29.6992<290.613 506.59>
LayerCount: 2
Fore
SplineSet
57.1504 335.101 m 1
 65.9287 446.835 70.7754 528.284 178.935 636.442 c 1
 202.899 659.85 l 1
 279.899 729.85 379.899 749.85 498.899 749.85 c 0
 583.899 749.85 670.899 728.85 731.899 673.85 c 1
 743.261 662.861 l 1
 815.87 590.252 835.094 505.822 836.85 415.899 c 1
 836.85 357.899 828.85 299.899 808.85 244.899 c 1
 785.232 193.459 790.52 181.245 726.34 117.065 c 0
 686.132 77.502 587.444 -14.8496 379.101 -14.8496 c 0
 299.101 -14.8496 219.101 7.15039 162.101 59.1504 c 1
 151.806 69.1045 l 2
 122.72 98.1895 57.1504 175.503 57.1504 335.101 c 1
807.15 396.101 m 0
 807.15 484.268 782.354 574.271 716.037 640.587 c 1
 655.049 695.796 574.293 720.15 479.101 720.15 c 0
 360.671 720.15 261.06 700.342 184.209 631.153 c 1
 116.125 555.376 86.8496 452.292 86.8496 354.899 c 0
 86.8496 196.787 152.776 117.631 179.029 91.3779 c 1
 203.132 70.1455 266.977 14.8496 398.899 14.8496 c 0
 517.628 14.8496 635.395 47.585 721.021 122.504 c 1
 776.225 185.848 807.15 286.083 807.15 396.101 c 0
693.85 349.899 m 0
 693.85 300.899 687.85 252.899 672.85 205.899 c 1
 660.723 172.318 645.985 138.736 619.709 112.46 c 2
 594.961 87.7119 l 1
 551.914 46.8604 497.027 31.1504 444.101 31.1504 c 0
 392.101 31.1504 342.101 50.1504 306.101 83.1504 c 1
 296.559 92.2705 l 1
 258.535 130.294 195.15 203.803 195.15 371.101 c 0
 195.15 426.014 214.336 550.928 280.674 617.266 c 2
 315.899 651.85 l 1
 352.899 685.85 403.899 709.85 456.899 709.85 c 0
 599.07 709.85 693.85 570.683 693.85 349.899 c 0
463.899 60.8496 m 0
 514.702 60.8496 566.423 76.4688 604.091 107.707 c 1
 629.737 149.343 664.15 209.223 664.15 330.101 c 0
 664.15 473.491 618.74 680.15 437.101 680.15 c 0
 384.101 680.15 333.101 656.15 296.101 622.15 c 0
 293.016 619.15 262.077 571.576 253.85 542.899 c 1
 176.962 333.596 258.444 60.8496 463.899 60.8496 c 0
EndSplineSet
EndChar

StartChar: u1D54A
Encoding: 120138 120138 12
Width: 654
VWidth: 1015
Flags: W
HStem: -13.8496 29.6992<205.813 374.454> 35.1504 29.6992<288.648 388.467> 685.15 29.6992<298.081 394.834> 723.15 29.6992<287.62 491.621>
VStem: 115.15 29.6992<485.463 608.819> 182.179 29.6709<145.6 190.964> 574.15 29.6992<165.324 281.476>
DStem2: 66.1504 92.1006 95.8496 111.899 0.673154 0.739502<33.8887 146.395>
LayerCount: 2
Fore
SplineSet
605.85 646.899 m 1
 581.101 622.15 l 1
 486.101 548.15 l 1
 464.15 558.101 l 1
 461.516 588.504 438.34 685.15 335.101 685.15 c 0
 311.14 685.15 287.91 678.56 269.801 665.378 c 1
 269.22 656.546 255.85 608.899 255.85 608.899 c 1
 254.094 578.729 270.249 541.229 287.603 523.873 c 1
 373.558 448.15 480.257 421.447 536.899 368.85 c 1
 548.516 357.73 l 1
 587.476 318.771 602.094 283.683 603.85 237.899 c 1
 595.071 182.477 603.794 165.442 538.097 99.7451 c 2
 518.101 80.1504 l 1
 453.101 21.1504 365.101 -13.8496 273.101 -13.8496 c 0
 228.101 -13.8496 182.893 -2.23047 144.101 19.1504 c 0
 108.737 38.6406 86.8047 64.2197 66.1504 92.1006 c 1
 187.899 225.85 l 1
 206.899 218.85 l 1
 211.85 213.899 l 1
 210.094 174.763 230.138 127.392 254.505 103.024 c 1
 279.483 80.3379 311.742 64.8496 349.899 64.8496 c 0
 381.222 64.8496 409.998 76.7305 432.318 95.0205 c 1
 437.407 104.372 455.028 138.747 453.15 163.101 c 1
 454.906 195.255 429.425 229.165 410.824 247.766 c 0
 354.027 301.701 267.969 319.815 185.101 395.15 c 1
 173.861 406.022 l 2
 134.999 444.885 116.906 479.215 115.15 525.101 c 1
 123.929 583.173 110.438 603.699 178.325 671.586 c 2
 196.899 689.85 l 1
 249.899 737.85 325.899 752.85 399.899 752.85 c 0
 530.504 752.85 573.974 716.886 605.85 646.899 c 1
493.336 581.545 m 1
 505.899 577.85 l 1
 574.405 631.212 l 1
 549.704 687.342 509.977 723.15 380.101 723.15 c 0
 309.315 723.15 236.7 709.426 184.136 666.221 c 1
 156.161 631.64 144.85 588.623 144.85 544.899 c 0
 144.85 500.77 168.516 460.866 201.085 428.297 c 1
 288.275 349.5 374.949 328.35 423.899 283.85 c 1
 433.098 274.989 l 2
 461.504 246.583 482.85 218.929 482.85 182.899 c 0
 482.85 152.281 470.797 122.523 448.29 100.017 c 2
 423.542 75.2686 l 1
 396.646 49.9697 366.816 35.1504 330.101 35.1504 c 0
 295.101 35.1504 262.101 49.1504 237.101 71.1504 c 1
 206.348 100.521 183.154 137.042 182.179 190.964 c 1
 170.152 195.395 l 1
 95.8496 111.899 l 1
 104.472 99.6475 114.122 87.8086 124.896 77.0342 c 0
 172.925 32.0771 242.852 15.8496 292.899 15.8496 c 0
 382.214 15.8496 467.758 48.835 532.148 104.743 c 1
 559.218 137.07 574.15 176.907 574.15 218.101 c 0
 574.15 262.128 553.959 302.79 521.292 335.457 c 1
 421.013 423.82 226.15 452.571 226.15 589.101 c 0
 226.15 614.298 233.118 640.366 251.93 659.178 c 2
 276.679 683.926 l 2
 282.426 689.268 307.967 714.85 354.899 714.85 c 0
 437.961 714.85 483.413 647.6 493.336 581.545 c 1
EndSplineSet
EndChar

StartChar: u1D54B
Encoding: 120139 120139 13
Width: 543
VWidth: 1015
Flags: W
HStem: 637.15 33.749<36.8496 161.801> 647.15 29.6992<81.4006 242.15 400.024 607.101> 703.15 29.6992<103.899 499.01> 712.15 29.6992<39.8994 184.545 461.233 608.101>
VStem: 234.15 29.6992<25.8994 459.024> 242.15 29.6992<87.7744 646.832> 370.15 29.6992<329.017 646.236> 386.512 30.3379<54.8994 244.498>
DStem2: 268.919 19.1396 248.101 -10.8496 0.961776 0.273839<0 121.488>
LayerCount: 2
Fore
SplineSet
222.101 647.15 m 1x64
 21.1006 637.15 l 1
 7.15039 651.101 l 1
 15.1504 717.101 l 1
 39.8994 741.85 l 1x94
 327.899 732.85 l 1
 627.899 743.85 l 1
 642.85 728.899 l 1
 618.101 654.15 l 1
 607.101 645.15 l 1
 607.101 645.15 456.116 647.173 399.85 646.236 c 1
 399.85 520.899 l 1x26
 416.85 54.8994 l 1
 392.101 30.1504 l 1
 248.101 -10.8496 l 1
 243.15 -5.89941 l 1
 234.15 6.10059 l 1x29
 242.15 634.101 l 2
 242.23 634.263 245.495 647.15 222.101 647.15 c 1x64
271.85 653.899 m 2
 271.85 520.899 l 1x46
 263.85 25.8994 l 1
 268.919 19.1396 l 1
 386.512 52.6211 l 1x49
 370.15 501.101 l 1
 370.15 639.101 l 2
 370.15 644.65 370.779 647.058 372.535 648.812 c 2
 397.284 673.562 l 2
 402.103 677.402 404.579 678.85 415.899 678.85 c 2
 613.15 675.109 l 1
 613.15 709.101 l 1
 608.101 714.15 l 1
 308.101 703.15 l 1x62
 30.1006 712.15 l 1
 36.8496 670.899 l 1x92
 241.899 676.85 l 2x42
 267.052 676.85 271.85 659.896 271.85 653.899 c 2
EndSplineSet
EndChar

StartChar: u1D54C
Encoding: 120140 120140 14
Width: 858
VWidth: 1015
Flags: W
HStem: -7.84961 29.6992<258.951 450.597 608.464 703.728> 53.1504 29.6992<374.366 522.492> 63.1504 29.6992<738.952 821.601> 704.145 29.7051<56.7909 251.656>
VStem: 110.15 29.6992<164.779 529.101> 117.15 29.6992<284.899 644.952> 237.15 29.6992<205.897 504.222> 568.98 29.8691<112.899 676.101> 695.15 29.6992<103.733 674.787>
DStem2: 586.899 700.85 592.77 679.585 0.950032 0.312153<0 119.283> 821.601 64.001 662.101 -4.84961 0.9629 0.269857<-195.631 -9.11337>
LayerCount: 2
Fore
SplineSet
343.101 -7.84961 m 0xb780
 235.275 -7.84961 110.15 18.1416 110.15 265.101 c 1xbb80
 117.15 529.101 l 1
 113.15 627.101 l 2
 113.401 632.542 105.979 644.644 106.071 644.977 c 0
 90.4141 653.549 80.7539 660.511 18.1006 670.15 c 1
 13.1504 675.101 l 1
 13.1504 701.101 l 1
 42.8994 730.85 l 1
 271.899 733.85 l 1
 286.85 717.899 l 1
 270.85 584.899 266.85 455.899 266.85 321.899 c 0
 266.85 187.594 305.46 82.8496 459.899 82.8496 c 0xd780
 497.45 82.8496 535 93.7002 568.98 107.243 c 1
 562.15 676.101 l 1
 586.899 700.85 l 1
 726.899 746.85 l 1
 746.85 733.899 l 1
 738.85 696.899 732.85 654.899 730.85 613.899 c 1
 724.85 204.899 l 1
 723.094 170.336 728.667 113.026 738.453 103.24 c 1
 748.969 95.4883 768.267 92.8496 788.899 92.8496 c 0
 807.899 92.8496 828.899 94.8496 845.899 96.8496 c 1
 850.85 91.8994 l 1
 851.85 73.8994 l 1
 819.101 39.1504 l 1
 662.101 -4.84961 l 2
 649.101 -8.84961 635.101 -9.84961 622.101 -9.84961 c 1
 609.413 -6.7793 595.009 -19.9131 562.101 44.1504 c 1
 492.101 16.1504 418.101 -7.84961 343.101 -7.84961 c 0xb780
695.15 185.101 m 1
 701.15 594.101 l 1
 703.113 634.337 708.929 675.537 716.706 712.028 c 1
 707.101 717.15 l 1
 592.77 679.585 l 1
 598.849 559.637 598.85 298.946 598.85 112.899 c 1
 574.101 88.1504 l 1
 534.101 70.1504 487.101 53.1504 440.101 53.1504 c 0
 391.101 53.1504 341.101 65.1504 306.101 97.1504 c 0
 280.281 121.874 237.15 159.976 237.15 302.101 c 0
 237.15 436.101 241.15 565.101 257.15 698.101 c 1
 251.656 704.145 l 1
 179.746 702.557 39.46 703.928 42.8496 699.082 c 1
 68.4209 695.079 102.2 689.045 121.899 676.85 c 1
 145.598 659.8 146.85 650.601 146.85 548.899 c 1xd780
 139.85 284.899 l 1
 139.85 159.649 175.022 96.3008 202.899 67.8496 c 1
 244.899 29.8496 304.899 21.8496 362.899 21.8496 c 0
 437.899 21.8496 511.899 45.8496 581.899 73.8496 c 1
 592.899 68.8496 l 1
 597.85 63.8994 l 1
 601.85 47.8994 605.85 36.8994 616.85 24.8994 c 1
 641.899 19.8496 l 1
 654.899 19.8496 668.899 20.8496 681.899 24.8496 c 2
 821.601 64.001 l 1
 821.444 66.8242 l 1
 769.101 63.1504 l 1
 699.818 63.1504 695.15 90.6602 695.15 185.101 c 1
EndSplineSet
EndChar

StartChar: u1D54D
Encoding: 120141 120141 15
Width: 745
VWidth: 1015
Flags: W
HStem: 703.729 29.1211<42.1934 224.651>
VStem: 12.1504 29.6992<697.915 703.729>
DStem2: 41.8496 697.915 17.1006 669.15 0.982662 -0.185408<0 64.3506> 169.85 544.899 140.15 525.101 0.312932 -0.949776<-134.055 543.557> 252.85 734.899 224.651 710.032 0.318899 -0.947789<14.5765 506.789> 346.899 24.8496 327.101 -4.84961 0.955352 0.29547<0 73.8432> 426.354 49.4229 448.85 49.8994 0.417682 0.908593<9.82921 459.51> 430.585 206.658 573.85 461.899 0.439721 0.898134<9.12743 551.635> 697.899 726.85 691.425 698.874 0.991743 0.128243<0 89.7061>
LayerCount: 2
Fore
SplineSet
697.899 726.85 m 1
 813.899 741.85 l 1
 821.85 722.899 l 1
 739.85 614.899 678.85 534.899 602.85 384.899 c 1
 448.85 49.8994 l 1
 424.101 25.1504 l 1
 327.101 -4.84961 l 1
 311.15 6.10059 l 1
 140.15 525.101 l 2
 112.298 609.632 95.3799 656.807 70.1006 659.15 c 1
 17.1006 669.15 l 1
 12.1504 674.101 l 1
 12.1504 701.101 l 1
 23.0381 711.713 33.2451 723.004 44.8994 732.85 c 1
 252.85 734.899 l 1
 430.585 206.658 l 1
 544.15 442.101 l 1
 673.15 702.101 l 1
 697.899 726.85 l 1
790.316 711.661 m 1
 691.425 698.874 l 1
 573.85 461.899 l 1
 450.85 206.899 l 1
 445.529 199.441 l 1
 420.78 174.692 l 2
 418.756 172.668 416.428 171.15 414.101 171.15 c 1
 410.409 173.258 l 1
 405.46 178.207 l 1
 390.635 200.128 346.179 316.43 305.15 438.101 c 1
 224.651 710.032 l 1
 41.8496 703.729 l 1
 41.8496 697.915 l 1
 89.8994 688.85 l 2
 100.557 687.073 106.482 681.014 114.622 672.875 c 1
 122.85 662.899 l 1
 137.85 640.899 156.688 584.847 169.85 544.899 c 2
 339.945 28.6426 l 1
 346.899 24.8496 l 1
 426.354 49.4229 l 1
 467.438 157.451 520.412 261.216 573.15 365.101 c 0
 649.269 515.041 710.15 595.101 792.15 703.101 c 1
 790.316 711.661 l 1
EndSplineSet
EndChar

StartChar: u1D54E
Encoding: 120142 120142 16
Width: 1125
VWidth: 1015
Flags: W
HStem: 701.15 29.6992<31.8994 206.306>
DStem2: 28.8496 698.517 4.10059 670.15 0.965616 -0.259973<0 52.425> 129.85 578.899 100.15 559.101 0.232645 -0.972562<-70.0697 569.932> 271.899 17.8496 252.101 -11.8496 0.952424 0.304776<0 77.0868> 355.35 44.5537 376.85 44.8994 0.388384 0.921498<8.66882 531.975> 609.85 546.899 580.15 527.101 0.217127 -0.976143<12.878 537.96> 590.899 707.85 588.344 681.666 0.979842 0.199774<0 79.7861> 735.899 13.8496 716.101 -15.8496 0.948683 0.316228<0 82.5052> 1067.9 712.85 1065.52 685.474 0.991228 0.132164<0 92.5168>
LayerCount: 2
Fore
SplineSet
1192.85 708.899 m 1
 1058.85 495.899 949.85 270.899 845.85 43.8994 c 1
 821.101 19.1504 l 1
 716.101 -15.8496 l 1
 697.15 1.10059 l 1
 580.15 527.101 l 1
 376.85 44.8994 l 1
 352.101 20.1504 l 1
 252.101 -11.8496 l 1
 233.15 3.10059 l 1
 100.15 559.101 l 1
 76.1504 638.101 l 1
 69.9141 649.361 l 1
 69.9141 649.361 62.0391 654.995 56.1006 656.15 c 2
 4.10059 670.15 l 1
 -0.849609 675.101 l 1
 -0.849609 697.101 l 1
 31.8994 730.85 l 1
 229.899 730.85 l 1
 234.85 725.899 l 1
 266.439 551.167 308.749 377.408 356.007 205.587 c 1
 435.39 363.25 508.032 516.367 566.15 683.101 c 1
 590.899 707.85 l 1
 693.899 728.85 l 1
 705.85 718.899 l 1
 730.85 540.899 782.85 358.899 826.85 175.899 c 1
 1043.15 688.101 l 1
 1067.9 712.85 l 1
 1187.9 728.85 l 1
 1192.85 708.899 l 1
1163.15 689.101 m 1
 1163.15 698.491 l 1
 1065.52 685.474 l 1
 1009.21 516.604 923.446 333.709 846.85 171.899 c 1
 841.35 163.399 l 1
 816.601 138.65 l 1
 811.101 136.15 l 1
 803.442 140.139 798.9 147.354 797.15 156.101 c 2
 676.525 697.419 l 1
 674.101 699.15 l 1
 588.344 681.666 l 1
 507.286 455.455 375.69 204.499 368.948 194.978 c 1
 344.199 170.229 l 1
 340.101 168.15 l 1
 335.263 170.177 l 1
 330.312 175.127 l 1
 328.15 179.101 l 1
 206.306 701.15 l 1
 28.8496 701.15 l 1
 28.8496 698.517 l 1
 75.8994 685.85 l 2
 104.311 678.749 113.305 642.715 129.85 578.899 c 1
 262.441 24.6055 l 1
 271.899 17.8496 l 1
 355.35 44.5537 l 1
 559.15 528.101 l 1
 564.954 538.104 l 1
 589.703 562.852 l 2
 591.564 564.713 593.854 565.85 596.899 565.85 c 1
 600.512 564.284 l 1
 605.856 558.939 608.277 557.906 609.85 546.899 c 2
 726.655 21.7734 l 1
 735.899 13.8496 l 1
 825.09 43.5791 l 1
 926.408 263.965 1032.98 482.194 1163.15 689.101 c 1
EndSplineSet
EndChar

StartChar: u1D54F
Encoding: 120143 120143 17
Width: 737
VWidth: 1015
Flags: W
HStem: 699.65 29.1992<46.8994 234.729>
DStem2: 297.627 334.982 254 204 0.611448 0.791285<-300.696 -14.4687 171.539 225.95> 142.85 647.899 297.627 334.982 0.54282 -0.839849<-42.1389 346.819 390.628 749.858> 548.4 17.1709 527.101 -12.8496 0.977802 0.209529<0 139.547>
LayerCount: 2
Fore
SplineSet
321.5 298.25 m 1
 302.762 273.344 274.5 234.018 254 204 c 1
 216 151 154 36 138 2 c 1
 44 -9 l 1
 44 7 l 1
 297.627 334.982 l 1
 110.812 631.231 l 1
 92.9277 649.116 40.6064 661.263 19.1006 666.15 c 1
 14.1504 671.101 l 1
 14.1504 695.101 l 1
 46.8994 728.85 l 1
 247.899 734.85 l 1
 252.85 729.899 l 1
 403.53 469.934 l 1
 486 579 l 1
 518 625 576 717 576 717 c 1
 671 730 l 1
 671 715 l 1
 471 488 l 1
 455.196 469.562 438.56 448.627 425.77 431.919 c 1
 425.77 431.919 621.881 144.969 648.407 118.442 c 1
 663.899 103.85 l 2
 680.899 87.8496 697.899 75.8496 714.899 70.8496 c 1
 719.85 65.8994 l 1
 719.85 47.8994 l 1
 695.101 23.1504 l 1
 527.101 -12.8496 l 1
 498.381 15.8701 328.27 288.103 321.5 298.25 c 1
226.037 705.089 m 1
 43.8496 699.65 l 1
 43.8496 694.729 l 1
 93.9141 683.433 118.799 675.901 142.85 647.899 c 1
 548.4 17.1709 l 1
 684.85 46.4102 l 1
 644.101 74.1504 l 1
 626.133 91.2188 l 1
 493.412 223.938 280.6 610.342 226.037 705.089 c 1
EndSplineSet
EndChar

StartChar: u1D550
Encoding: 120144 120144 18
Width: 583
VWidth: 1015
Flags: W
HStem: 704.15 29.6992<45.8994 206.609>
VStem: 261.15 29.749<32.3496 302.101> 384.15 29.6992<118.455 328.101> 392.612 30.2373<52.8994 280.185>
DStem2: 42.8496 697.558 18.1006 669.15 0.967617 -0.252422<0 58.2239> 233.85 728.899 206.609 704.15 0.444838 -0.895611<10.048 341.236> 303.899 25.8496 284.101 -3.84961 0.962788 0.270256<0 91.3176> 384.15 328.101 413.85 347.899 0.605463 0.795874<33.7391 467.411> 390.867 425.859 408.334 425 0.541199 0.840895<8.73036 325.433> 588.899 719.85 578.98 691.798 0.986394 0.164399<0 74.4578>
LayerCount: 2
Fore
SplineSet
696.85 719.899 m 1xd0
 413.85 347.899 l 1xe0
 422.85 52.8994 l 1
 398.101 28.1504 l 1
 284.101 -3.84961 l 1
 261.15 10.1006 l 1
 267.15 302.101 l 1
 126.15 581.101 l 1
 89.1504 643.101 l 1
 83.7695 649.276 69.334 656.641 64.1006 657.15 c 2
 18.1006 669.15 l 1
 13.1504 674.101 l 1
 13.1504 700.101 l 1
 45.8994 733.85 l 1
 228.899 733.85 l 1
 233.85 728.899 l 1
 383.416 427.771 l 1
 385.339 427.587 390.417 426.001 390.867 425.859 c 2
 564.15 695.101 l 1
 588.899 719.85 l 1
 690.899 736.85 l 1
 695.85 731.899 l 1
 696.85 719.899 l 1xd0
371.101 396.15 m 1
 364.32 396.15 359.619 399.654 354.15 407.101 c 1
 206.609 704.15 l 1
 42.8496 704.15 l 1
 42.8496 697.558 l 1
 83.8994 686.85 l 2
 99.3438 682.637 108.434 675.44 118.85 662.899 c 1
 155.85 600.899 l 1
 296.85 321.899 l 1
 290.899 32.3496 l 1
 303.899 25.8496 l 1
 392.612 50.751 l 1xd0
 384.15 328.101 l 1
 667.15 700.101 l 1
 666.625 706.405 l 1
 578.98 691.798 l 1
 408.334 425 l 1
 371.101 396.15 l 1
EndSplineSet
EndChar

StartChar: uni2102
Encoding: 8450 8450 19
Width: 789
VWidth: 1015
Flags: W
HStem: -17.8496 29.6992<337.299 554.1> 43.1504 29.6992<418.814 586.743> 666.15 29.6992<389.378 524.374> 711.15 29.6992<377.821 600.066>
VStem: 71.1504 29.6992<243.37 454.575> 218.15 29.6992<271.246 464.926>
DStem2: 194.705 99.4287 172.432 72.2051 0.725956 -0.687741<-86.0207 93.7949> 651 530 647.101 499.15 0.731311 0.682044<0 107.001>
LayerCount: 2
Fore
SplineSet
503.899 72.8496 m 0
 584.899 72.8496 661.899 101.85 731.899 135.85 c 1
 757.85 105.899 l 1
 733.101 81.1504 l 1
 649.101 22.1504 549.101 -17.8496 443.101 -17.8496 c 0
 346.337 -17.8496 242.635 6.51855 184.101 61.1504 c 2
 172.432 72.2051 l 1
 145.244 99.3926 71.1504 177.763 71.1504 336.101 c 0
 71.1504 430.302 94.6914 527.22 165.033 597.562 c 2
 200.899 632.85 l 1
 277.899 702.85 382.899 740.85 491.899 740.85 c 0
 685.043 740.85 732.144 662.869 765.85 609.899 c 1
 741.101 585.15 l 1
 647.101 499.15 l 1
 626.15 507.101 l 1
 614.783 550.675 597.135 593.354 563.855 626.632 c 1
 552.954 634.12 523.028 666.15 445.101 666.15 c 0
 399.672 666.15 356.661 643.028 324 615 c 1
 266.126 548.758 247.85 470.175 247.85 384.899 c 0
 247.85 212.322 338.067 72.8496 503.899 72.8496 c 0
728 601.5 m 1
 702.367 643.556 664.792 711.15 472.101 711.15 c 0
 363.101 711.15 267 661 190 591 c 1
 154.948 556.736 91.7168 444.777 100.85 355.899 c 1
 99.0938 263.753 131.657 162.477 194.705 99.4287 c 1
 203.899 90.8496 l 2
 275.039 24.4639 398.938 11.8496 462.899 11.8496 c 0
 556.842 11.8496 646.072 43.2676 723.629 91.4844 c 1
 711.538 105.878 l 1
 641.688 71.9961 564.884 43.1504 484.101 43.1504 c 0
 425.101 43.1504 367.101 62.1504 325.101 100.15 c 1
 312.541 112.228 l 1
 238.896 185.872 219.906 272.731 218.15 365.101 c 1
 226.929 464.806 244 551 318.168 629.565 c 1
 339.899 650.85 l 1
 372.899 680.85 417.899 695.85 464.899 695.85 c 0
 507.899 695.85 551.899 684.85 582.899 656.85 c 1
 591.079 648.905 l 2
 618.464 621.521 634.072 600.534 651 530 c 1
 676 553.5 702.549 576.784 728 601.5 c 1
EndSplineSet
EndChar

StartChar: uni210D
Encoding: 8461 8461 20
Width: 856
VWidth: 1015
Flags: W
HStem: -6.84961 29.6992<631.899 783.601> 1.15039 28.9336<637.642 808.101> 339.15 29.6992<274.901 592.226> 388.15 29.6992<277.27 595.863> 696.15 29.6992<58.1006 255.15>
VStem: 124.15 29.6992<27.8994 638.707> 250.776 30.0732<54.8994 246.768 417.908 441.787> 598.15 29.6992<187.898 332.715 418.101 686.101> 723.15 29.6992<83.4906 499.101>
DStem2: 151.798 24.1084 131.101 -5.84961 0.960942 0.276751<0 101.901> 622.899 710.85 627.85 686.862 0.974391 0.22486<0 107.447>
LayerCount: 2
Fore
SplineSet
622.899 710.85 m 1xbf80
 752.899 740.85 l 1
 767.85 725.899 l 1
 755.85 610.899 751.85 495.899 751.85 380.899 c 2
 752.85 117.899 l 1
 748.302 64.3818 833 57.667 838.85 56.8994 c 1
 838.85 32.8994 l 1
 808.101 1.15039 l 1x7f80
 612.101 -6.84961 l 1
 584.15 19.1006 l 1
 594.15 118.101 598.15 217.101 598.15 317.101 c 1
 599.859 321.483 593.863 334.329 595.903 332.646 c 2
 592.15 336.101 l 2
 594.225 334.026 567.101 339.15 567.101 339.15 c 1
 279.101 339.15 l 2
 270.135 339.15 274.781 339.117 280.85 54.8994 c 1
 256.101 30.1504 l 1
 131.101 -5.84961 l 1
 126.587 -1.73047 122.897 3.21387 119.15 8.10059 c 1
 124.15 364.101 l 1
 124.15 617.101 l 1
 131.566 641.861 50.4873 662.619 30.1006 665.15 c 1
 25.1504 670.101 l 1
 25.1504 693.101 l 1
 57.8994 725.85 l 1
 271.899 727.85 l 1
 284.85 714.899 l 1
 276.899 424.85 l 1
 284.899 417.85 286.899 417.85 299.899 417.85 c 2
 588.899 417.85 l 2
 601.899 417.85 610.899 417.85 615.899 421.85 c 1
 598.15 418.101 l 1
 598.15 686.101 l 1
 622.899 710.85 l 1xbf80
244.15 418.101 m 2
 255.15 695.101 l 1
 58.1006 696.15 l 2
 47.8174 695.557 153.85 680.265 153.85 636.899 c 2
 153.85 383.899 l 1
 148.85 27.8994 l 1
 151.798 24.1084 l 1
 250.776 52.6143 l 1
 245.15 316.101 l 1
 245.091 325.728 245 334.5 274.899 360.85 c 0
 281.815 366.945 289.899 368.85 298.899 368.85 c 2
 586.899 368.85 l 1
 586.899 368.85 627.85 374.093 627.85 336.899 c 1
 613.869 39.3125 l 1
 631.899 22.8496 l 1xbf80
 809.15 30.084 l 1
 791.667 31.333 731.667 42 723.15 98.1006 c 1
 722.15 361.101 l 1
 738.15 706.101 l 1
 733.101 711.15 l 1
 627.85 686.862 l 1
 627.85 437.899 l 2
 627.85 429.899 626.85 422.899 620.85 416.899 c 2
 596.101 392.15 l 2
 591.101 388.15 582.101 388.15 569.101 388.15 c 2
 280.101 388.15 l 2
 245.924 388.15 244.15 418.093 244.15 418.101 c 2
EndSplineSet
EndChar

StartChar: uni2115
Encoding: 8469 8469 21
Width: 922
VWidth: 1015
Flags: W
HStem: 5.15039 29.6992<704.396 753.322> 699.15 29.6992<69.8994 248.538>
VStem: 121.15 29.7627<31.7637 215.311> 140.15 29.6992<381.69 626.836> 676.15 30.2783<497.78 691.101> 691.752 31.0977<252.444 429.713> 751.15 29.6992<34.8496 370.86>
DStem2: 158.899 26.8496 139.101 -2.84961 0.911505 0.411289<0 59.6994> 219.552 520.98 188.15 531.101 0.05682 -0.998384<0 462.829> 232.115 559.899 219.552 520.98 0.668759 -0.74348<20.5335 706.206> 268.899 728.85 248.538 699.15 0.663805 -0.747906<0 636.998> 700.899 715.85 706.429 694.594 0.948683 0.316228<0 57.207>
LayerCount: 2
Fore
SplineSet
215.397 52.3418 m 1xe2
 188.15 531.101 l 2
 188.15 536.854 189.376 540.562 191.305 542.49 c 2
 216.054 567.239 l 1
 219.899 568.85 l 1
 223.694 568.85 228.423 563.592 232.115 559.899 c 2
 704.396 34.8496 l 1
 753.322 34.8496 l 1
 748.862 168.051 l 1
 751.15 297.101 l 1
 777.06 702.679 l 1
 762.101 713.15 l 1
 706.429 694.594 l 1xea
 722.85 232.899 l 1
 698.101 208.15 l 1
 686.101 206.15 l 1
 248.538 699.15 l 1
 186.036 698.695 65.126 700.962 66.8496 697.513 c 1
 156 667 174 633 169.85 586.899 c 1xd6
 150.913 31.7637 l 1
 158.899 26.8496 l 1
 215.397 52.3418 l 1xe2
691.752 252.444 m 1xd6
 676.15 691.101 l 1
 700.899 715.85 l 1
 781.899 742.85 l 1
 806.85 723.899 l 1
 780.85 316.899 l 1
 778.561 187.85 l 1
 783.85 29.8994 l 1
 759.101 5.15039 l 1
 684.101 5.15039 l 1
 219.552 520.98 l 1
 245.85 58.8994 l 1
 221.101 34.1504 l 1
 139.101 -2.84961 l 1
 121.15 10.1006 l 1xea
 140.15 567.101 l 1
 140.15 631.633 122 643 42.1006 669.15 c 1
 40.333 679 38.667 686 37.1504 696.101 c 1
 69.8994 728.85 l 1
 268.899 728.85 l 1
 691.752 252.444 l 1xd6
EndSplineSet
EndChar

StartChar: uni2119
Encoding: 8473 8473 22
Width: 664
VWidth: 1015
Flags: W
HStem: 305.153 29.6963<279.907 434.717> 351.15 29.6992<279.918 376.1> 654.15 29.6992<284.793 405.952> 699.15 29.6992<66.8994 504.628>
VStem: 116.15 29.7129<29.7129 407.226> 124.15 29.6992<85.8059 646.865> 250.15 29.7334<54.8994 305.016 381.452 651.828> 602.15 29.6992<479.921 618.72>
DStem2: 152.899 23.8496 133.101 -5.84961 0.962094 0.272719<0 104.856>
LayerCount: 2
Fore
SplineSet
260.101 30.1504 m 1xf7
 133.101 -5.84961 l 1
 116.15 9.10059 l 1xfb
 124.15 464.101 l 1
 120.15 628.101 l 2
 120.253 633.692 110.595 647.061 110.607 647.156 c 0
 86.6348 662.972 75.8281 664.743 39.1006 669.15 c 1
 38 683 34.5967 685.913 34.1504 696.101 c 1
 66.8994 728.85 l 1
 411.899 728.85 l 2
 470.116 728.85 544.145 718.524 582.899 683.85 c 1
 616.762 650.987 629.305 625.587 631.85 564.899 c 1
 623.071 499.236 620 443 558 379 c 0
 542.478 362.977 490.789 305.476 279.884 305.153 c 1
 284.85 54.8994 l 1
 260.101 30.1504 l 1xf7
152.899 23.8496 m 1
 254.801 52.7344 l 1
 250.15 287.101 l 1
 254 307 270.5 316 280.899 328.85 c 0
 284.457 333.247 290.899 334.85 296.899 334.85 c 2
 359.899 336.85 l 1
 390.114 339.116 496.656 350.517 554.562 399.198 c 1
 588.833 440.402 602.15 493.491 602.15 545.101 c 0
 602.15 584.839 592.111 624.576 563.101 654.15 c 1
 524.536 688.655 450.183 699.15 392.101 699.15 c 0
 306.077 698.241 83.0273 700.907 63.8496 698.253 c 1
 87.2939 695.401 111.15 691.861 128.899 677.85 c 1
 154.605 655.461 153.85 660.989 153.85 483.899 c 1xf7
 145.863 29.7129 l 1
 152.899 23.8496 l 1
489.85 546.899 m 0
 489.85 497.367 473.812 448.777 437.161 412.125 c 2
 412.412 387.377 l 2
 380.739 356.517 328.445 351.15 282.101 351.15 c 0
 259.058 351.15 250.199 369.467 250.15 376.101 c 2
 248.15 636.101 l 2
 248.11 641.264 248.694 648.604 252.993 652.902 c 0
 263.459 662.054 270.951 674.18 283.899 680.85 c 1
 302.899 683.85 325.899 683.85 344.899 683.85 c 0
 421.044 683.85 489.85 646.282 489.85 546.899 c 0
301.899 380.85 m 0
 506.659 380.85 472 591 425.792 627.666 c 0
 414.108 636.937 385.515 654.15 325.101 654.15 c 1
 277.878 651.828 l 1
 279.85 395.899 l 2
 279.858 394.808 280.058 380.85 301.899 380.85 c 0
EndSplineSet
EndChar

StartChar: uni211A
Encoding: 8474 8474 23
Width: 918
VWidth: 1015
Flags: W
HStem: -196.85 29.6992<575.562 771.161> -152.85 29.6992<669.692 806.655> -19.8301 29.6797<302.649 368.661> 26.1504 29.6992<398.121 541.739> 714.15 29.6992<373.7 601.582>
VStem: 71.1504 29.6992<226.202 435.739> 681.15 29.6992<235.739 479.784> 820.15 29.6992<273.928 493.168>
DStem2: 458.001 -65.4561 430.777 -87.7305 0.721594 -0.692316<-96.0547 142.499>
LayerCount: 2
Fore
SplineSet
834.85 -116.101 m 1
 843.85 -145.101 l 1
 819.101 -169.85 l 1
 760.101 -187.85 697.101 -196.85 634.101 -196.85 c 0
 578.101 -196.85 525.101 -175.85 485.101 -139.85 c 1
 430.777 -87.7305 l 1
 368.661 -19.8301 l 1
 245.61 -14.416 188.518 41.084 166.78 62.0127 c 0
 91.1006 137.692 72.9062 227.646 71.1504 323.101 c 0
 71.6328 329.302 66.8467 479.219 160 598.348 c 0
 222.267 677.977 328.292 743.85 508.899 743.85 c 0
 652.465 743.85 844.529 680.138 849.85 399.899 c 1
 849.85 344.899 842.85 288.899 823.85 235.899 c 0
 820.271 228.179 776.296 66.1982 562.833 3.1084 c 1
 632.902 -107.813 691.686 -123.15 723.899 -123.15 c 0
 761.899 -123.15 796.899 -117.15 829.899 -111.15 c 1
 834.85 -116.101 l 1
489.101 714.15 m 0
 298.706 714.15 100.85 639.899 100.85 342.899 c 0
 100.85 249.2 124.617 153.673 194.004 84.2861 c 1
 211.815 68.1445 270.266 14.9336 388.899 9.84961 c 1
 403.34 -4.59082 407.458 -14.9131 458.001 -65.4561 c 1
 504.899 -110.15 l 1
 544.899 -146.15 597.899 -167.15 653.899 -167.15 c 0
 706.382 -167.15 758.864 -160.904 809.034 -148.413 c 1
 806.869 -141.436 l 1
 774.817 -147.234 740.862 -152.85 704.101 -152.85 c 0
 667.101 -152.85 635.101 -131.85 608.101 -108.85 c 1
 599.836 -100.863 l 2
 572.605 -73.6318 556.336 -53.0479 530.15 -11.8994 c 1
 536.15 2.10059 l 1
 560.899 26.8496 l 1
 652.798 50.1484 820.15 97.5 820.15 380.101 c 0
 820.15 647.34 635.874 714.15 489.101 714.15 c 0
343.899 103.85 m 0
 376.977 72.9316 426.899 55.8496 473.899 55.8496 c 0
 527.671 55.8496 580.521 70.6006 620.054 103.646 c 1
 627.502 115.387 653.043 159.767 660.15 189.101 c 1
 676.15 242.101 681.15 297.101 681.15 353.101 c 0
 681.15 488.068 643.796 646.049 462 669 c 0
 391.899 677.85 308 639 267.85 533.899 c 0
 221.778 413.297 229.45 210.834 343.899 103.85 c 0
454.101 26.1504 m 0
 407.101 26.1504 357.101 43.1504 324.101 74.1504 c 0
 286.582 109.766 220 185 209.15 357.101 c 0
 204.069 437.697 226 591 346 657 c 0
 379.031 675.167 418 697 471.899 697.85 c 4
 574.548 699.469 712 629 710.85 372.899 c 0
 710.164 220.088 669.428 142.203 635.413 108.188 c 2
 610.664 83.4404 l 2
 594.171 67.7578 548.039 26.1504 454.101 26.1504 c 0
EndSplineSet
EndChar

StartChar: uni211D
Encoding: 8477 8477 24
Width: 714
VWidth: 1015
Flags: W
HStem: 662.15 29.6992<286.783 394.938> 701.15 29.6992<62.8994 494.6>
VStem: 114.15 29.6992<25.8994 276.284> 124.15 32.6992<240.515 648.058> 249.15 31.4961<168.999 303.515 397.773 661.755> 259.543 30.3066<65.8994 242.509> 455.15 29.6992<486.73 604.592> 597.15 29.6992<491.619 623.576>
DStem2: 147.899 21.8496 128.101 -7.84961 0.941586 0.336772<0 116.855> 291.85 347.899 280.646 303.515 0.601158 -0.79913<28.7343 408.164> 556.899 19.8496 537.101 -9.84961 0.916696 0.399585<0 97.6154>
LayerCount: 2
Fore
SplineSet
364.101 701.15 m 4xcb
 261.661 700.677 87.2529 703.116 62.8496 699.484 c 1
 89.3945 697.449 117.191 693.852 137.899 677.85 c 1
 158.568 659.948 156.85 647.295 156.85 490.899 c 1xdb
 143.85 25.8994 l 1
 147.899 21.8496 l 1
 259.543 61.7803 l 1xe7
 249.15 330.101 l 1
 273.899 354.85 l 1
 285.411 351.338 278.264 361.485 291.85 347.899 c 1
 537.221 21.7236 l 1
 556.899 19.8496 l 1
 646.73 59.0068 l 1
 646.189 61.8955 l 1
 636.468 71.2861 l 1
 575.338 132.416 500.625 221.23 395.15 345.101 c 1
 399.15 356.101 l 1
 423.899 380.85 l 1
 475.053 393.87 521.881 407.756 561.971 439.401 c 1
 587.847 473.02 597.15 516.492 597.15 557.101 c 0
 597.15 643.53 548.233 701.15 364.101 701.15 c 4xcb
430.763 358.217 m 1
 675.85 81.8994 l 1
 678.85 65.8994 l 1
 654.101 41.1504 l 1
 537.101 -9.84961 l 1
 511.15 -2.89941 l 1
 280.646 303.515 l 1xdb
 289.85 65.8994 l 1
 265.101 41.1504 l 1
 128.101 -7.84961 l 1
 114.15 6.10059 l 1xe7
 124.15 629.101 l 2
 124.953 634.79 119.027 646.323 118.101 648.15 c 0
 96.1006 665.15 66.1006 668.15 38.1006 670.15 c 1
 33.1504 675.101 l 1
 33.1504 701.101 l 1
 62.8994 730.85 l 1
 383.899 730.85 l 2
 502.699 730.85 556.24 706.287 581.899 681.85 c 0
 619.104 645.915 624.761 620.684 626.85 576.899 c 1
 618.071 521.86 633.864 499.753 567.507 433.396 c 2
 551.101 417.15 l 1
 515.993 386.223 475.297 370.666 430.763 358.217 c 1
253.15 644.101 m 2
 253.862 649.796 255.589 655.999 259.411 659.821 c 2
 284.159 684.57 l 1
 289.899 687.85 l 1
 302.899 691.85 316.899 691.85 329.899 691.85 c 0
 370.899 691.85 413.899 685.85 442.899 658.85 c 0
 457.119 645.443 484.85 619.67 484.85 560.899 c 0
 484.85 514.899 469.85 470.899 436.85 436.899 c 2
 411.427 411.466 l 2
 380.891 380.93 299.761 366.15 254.101 366.15 c 1
 253.15 644.101 l 2
417.065 428.27 m 1
 443.17 460.476 455.15 499.989 455.15 541.101 c 1
 456.906 571.489 442.395 610.102 424.896 627.6 c 1
 408.326 641.908 384.451 662.15 310.101 662.15 c 0
 301.197 662.15 291.824 662.15 282.625 660.865 c 1
 281.501 637.265 279.012 484.61 278.856 397.106 c 1
 316.251 393.004 403.48 423.797 417.065 428.27 c 1
EndSplineSet
EndChar

StartChar: uni2124
Encoding: 8484 8484 25
Width: 733
VWidth: 1015
Flags: W
HStem: -10.8496 29.9727<472.899 666.101> 0.150391 29.6143<43.8496 204.886> 63 30<252 418.812> 80.1504 29.6992<512.655 678.101> 630.15 32.749<127.85 304.437> 643 29.8496<272.664 466> 708.796 30.0537<131.899 615.325> 709 22<190.574 630>
DStem2: 14.1504 29.1006 43.8496 48.8994 0.592776 0.805367<33.5503 762.26> 669.812 19.123 690.85 13.8994 0.327111 0.944986<1.9452 55.5242>
LayerCount: 2
Fore
SplineSet
14.1504 29.1006 m 1x40
 466 643 l 1x44
 111.101 630.15 l 1
 98.1504 643.101 l 1
 101 665 104 692 110 725 c 1
 122.899 731.85 l 1
 131.899 738.85 l 1x0a
 674 731 l 1
 530 545 392.85 307.899 252.85 108.899 c 1
 250.85 104.899 l 1
 252 93 l 1x21
 697.899 109.85 l 1
 717.85 91.8994 l 1
 690.85 13.8994 l 1
 666.101 -10.8496 l 1x90
 539.101 0.150391 235.101 0.150391 19.1006 0.150391 c 1
 14.1504 5.10059 l 1
 14.1504 29.1006 l 1x40
240 63 m 1x20
 219 87 l 2
 219.111 87.1729 218.251 104.38 630 709 c 1x21
 127.85 708.796 l 1
 127.85 662.899 l 1x0a
 476.899 672.85 l 1
 481.85 667.899 l 1
 491.85 653.899 l 1
 43.8496 48.8994 l 1
 43.8496 29.7646 l 1x44
 669.812 19.123 l 1
 687.975 71.5928 l 1
 678.101 80.1504 l 1x90
 240 63 l 1x20
EndSplineSet
EndChar
